<svg width="406" height="181" viewBox="0 0 406 181" fill="none" xmlns="http://www.w3.org/2000/svg">
<path d="M55.92 180.4C44.56 180.4 34.72 178.32 26.4 174.16C18.08 169.84 11.6 163.84 6.96 156.16C2.48 148.32 0.240001 139.12 0.240001 128.56V52.24C0.240001 41.68 2.48 32.56 6.96 24.88C11.6 17.04 18.08 11.04 26.4 6.87999C34.72 2.55999 44.56 0.399998 55.92 0.399998C67.12 0.399998 76.88 2.55999 85.2 6.87999C93.52 11.04 100 17.04 104.64 24.88C109.28 32.56 111.6 41.68 111.6 52.24H81.36C81.36 44.08 79.12 37.84 74.64 33.52C70.32 29.04 64.08 26.8 55.92 26.8C47.76 26.8 41.44 29.04 36.96 33.52C32.48 37.84 30.24 44.08 30.24 52.24V128.56C30.24 136.72 32.48 143.04 36.96 147.52C41.44 151.84 47.76 154 55.92 154C64.08 154 70.32 151.84 74.64 147.52C79.12 143.04 81.36 136.72 81.36 128.56H111.6C111.6 139.12 109.28 148.32 104.64 156.16C100 163.84 93.52 169.84 85.2 174.16C76.88 178.32 67.12 180.4 55.92 180.4ZM199.826 180.4C188.466 180.4 178.626 178.32 170.306 174.16C161.986 169.84 155.506 163.84 150.866 156.16C146.386 148.32 144.146 139.12 144.146 128.56V52.24C144.146 41.68 146.386 32.56 150.866 24.88C155.506 17.04 161.986 11.04 170.306 6.87999C178.626 2.55999 188.466 0.399998 199.826 0.399998C211.026 0.399998 220.786 2.55999 229.106 6.87999C237.426 11.04 243.906 17.04 248.546 24.88C253.186 32.56 255.506 41.68 255.506 52.24H225.266C225.266 44.08 223.026 37.84 218.546 33.52C214.226 29.04 207.986 26.8 199.826 26.8C191.666 26.8 185.346 29.04 180.866 33.52C176.386 37.84 174.146 44.08 174.146 52.24V128.56C174.146 136.72 176.386 143.04 180.866 147.52C185.346 151.84 191.666 154 199.826 154C207.986 154 214.226 151.84 218.546 147.52C223.026 143.04 225.266 136.72 225.266 128.56H255.506C255.506 139.12 253.186 148.32 248.546 156.16C243.906 163.84 237.426 169.84 229.106 174.16C220.786 178.32 211.026 180.4 199.826 180.4ZM278.213 178L322.373 2.8H361.013L405.412 178H374.693L365.093 135.52H318.533L308.933 178H278.213ZM324.053 111.04H359.573L349.013 64C347.253 56.16 345.733 49.12 344.453 42.88C343.173 36.48 342.293 31.84 341.813 28.96C341.333 31.84 340.453 36.48 339.173 42.88C337.893 49.12 336.373 56.08 334.613 63.76L324.053 111.04Z" fill="black"/>
</svg>
