<svg width="513" height="72" viewBox="0 0 513 72" fill="none" xmlns="http://www.w3.org/2000/svg">
<path d="M5.96046e-08 70.72V3.04H16V58.32C27.6 58.32 36 57.76 45.12 55.92V70.72H5.96046e-08ZM48 70.72V3.04H64V26.96H71.2V40.56H64V70.72H48ZM74.375 13.28V4.32H99.175V0.639998H115.975V4.32H140.775V13.28H74.375ZM74.375 43.2V34.96H99.175V33.28H89.335C79.735 33.28 73.975 31.2 73.975 24C73.975 16.8 79.735 14.72 89.335 14.72H125.815C135.415 14.72 141.175 16.8 141.175 24C141.175 31.2 135.415 33.28 125.815 33.28H115.975V34.96H140.775V43.2H74.375ZM107.575 16.24C107.175 22.96 100.295 23.92 82.935 24C100.455 24.16 107.335 25.12 107.575 32C107.815 25.12 114.615 24.16 132.135 24C114.775 23.92 107.895 22.96 107.575 16.24ZM74.375 52.64V44.72H140.775V58.16C124.295 60.4 109.895 61.28 90.375 61.28V62.8C109.895 62.8 124.535 62 141.175 59.68V70.72H74.375V54.08H124.775V52.64H74.375ZM148.75 15.04V3.04H215.15V31.84H164.75V37.84C184.27 37.84 198.51 37.28 215.15 35.68V49.84H190.35V58.32H215.15V70.72H148.75V58.32H173.55V49.84H148.75V20.32H199.15V15.04H148.75ZM223.125 70.72V3.04H267.125V70.72H223.125ZM271.125 70.72V3.04H287.125V26.96H294.325V40.56H287.125V70.72H271.125ZM245.125 4.8C245.125 28.32 234.485 36.56 224.805 36.96C234.485 37.36 245.125 45.52 245.125 68.96C245.125 45.52 255.765 37.28 265.365 36.88C255.765 36.48 245.125 28.32 245.125 4.8ZM297.5 52.32V21.44C297.5 10.24 304.7 2.24 319.9 2.24C335.1 2.24 342.3 10.24 342.3 21.44V52.32C342.3 63.52 335.1 71.52 319.9 71.52C304.7 71.52 297.5 63.52 297.5 52.32ZM347.9 70.72V3.04H363.9V70.72H347.9ZM319.9 4.8C319.9 28.32 308.86 36.56 299.18 36.96C308.86 37.36 319.9 45.52 319.9 68.96C319.9 45.52 330.86 37.28 340.54 36.88C330.86 36.48 319.9 28.32 319.9 4.8ZM371.075 46.72L396.675 3.04H413.475L439.075 46.72H420.675L405.075 18.16L389.475 46.72H371.075ZM371.875 70.72V58.32H438.275V70.72H371.875ZM446.25 70.72V3.04H487.77V15.44H462.25V30.24H486.17V42.64H462.25V58.32C473.85 58.32 480.65 57.76 489.77 55.92V70.72H446.25ZM489.37 42.64V30.24H496.65V3.04H512.65V70.72H496.65V42.64H489.37Z" fill="black"/>
</svg>
